<?xml version="1.0" encoding="iso-8859-1"?>
<!-- Generator: Adobe Illustrator 18.0.0, SVG Export Plug-In . SVG Version: 6.00 Build 0)  -->
<!DOCTYPE svg PUBLIC "-//W3C//DTD SVG 1.1//EN" "http://www.w3.org/Graphics/SVG/1.1/DTD/svg11.dtd">
<svg version="1.1" id="Capa_1" xmlns="http://www.w3.org/2000/svg" xmlns:xlink="http://www.w3.org/1999/xlink" x="0px" y="0px"
	 viewBox="0 0 303.124 303.124" style="enable-background:new 0 0 303.124 303.124;" xml:space="preserve">
<g>
	<path d="M101.566,32.004h51.431c2.485,0,4.5-2.015,4.5-4.5c0-2.485-2.015-4.5-4.5-4.5h-51.431c-2.485,0-4.5,2.015-4.5,4.5
		C97.066,29.989,99.081,32.004,101.566,32.004z"/>
	<path d="M191.293,34.526c1.472-2.132,2.283-4.465,2.283-7.022C193.576,5.793,135.742,0,101.569,0
		C67.395,0,9.557,5.793,9.557,27.504c0,2.557,0.812,4.89,2.283,7.022C6.147,39.999,0,47.524,0,54.506v201.035
		c0,5.23,3.206,9.865,9.557,13.874v9.515c0,21.708,57.838,27.5,92.013,27.5c34.173,0,92.007-5.792,92.007-27.5v-9.514
		c6.351-4.01,9.557-8.645,9.557-13.875V54.506C203.133,47.524,196.986,39.999,191.293,34.526z M12,255.541V54.506
		c0-1.387,2.338-6.003,9.244-12.358c18.678,9.838,55.662,12.856,80.325,12.856c24.661,0,61.643-3.018,80.319-12.856
		c6.906,6.355,9.244,10.972,9.244,12.358v201.035c0,1.034-4.172,6.254-23.445,11.072c-17.586,4.396-41.067,6.816-66.118,6.816
		s-48.533-2.421-66.122-6.816C16.172,261.795,12,256.575,12,255.541z M44.121,17.656C59.68,14.009,80.082,12,101.569,12
		s41.889,2.009,57.446,5.656c16.914,3.965,21.984,8.441,22.538,9.848c-0.17,0.43-0.766,1.149-1.991,2.051
		c-0.855,0.59,0,0-0.855,0.59c-3.088,2.008-9.041,4.707-19.695,7.204c-15.557,3.646-35.957,5.654-57.443,5.654
		c-21.485,0-41.887-2.008-57.445-5.654c-10.659-2.498-16.613-5.198-19.7-7.206c-0.852-0.588,0,0-0.852-0.588
		c-1.226-0.902-1.822-1.621-1.992-2.052C22.134,26.097,27.206,21.621,44.121,17.656z M181.586,278.835
		c-0.354,1.289-5.26,5.883-22.573,9.94c-15.557,3.647-35.957,5.654-57.443,5.654c-21.485,0-41.887-2.008-57.445-5.654
		c-17.316-4.058-22.224-8.651-22.567-9.846v-3.933c3.288,1.163,6.949,2.249,10.982,3.257c18.512,4.627,43.028,7.176,69.031,7.176
		c26.003,0,50.518-2.549,69.028-7.176c4.034-1.008,7.696-2.095,10.985-3.259L181.586,278.835z"/>
</g>
<g>
</g>
<g>
</g>
<g>
</g>
<g>
</g>
<g>
</g>
<g>
</g>
<g>
</g>
<g>
</g>
<g>
</g>
<g>
</g>
<g>
</g>
<g>
</g>
<g>
</g>
<g>
</g>
<g>
</g>
</svg>
